<mxfile host="app.diagrams.net" modified="2024-01-24T02:14:07.382Z" agent="Mozilla/5.0 (X11; Linux x86_64) AppleWebKit/537.36 (KHTML, like Gecko) Chrome/120.0.0.0 Safari/537.36" etag="gswEyT07xGedFuvXp3zU" version="22.1.17" type="dropbox">
  <diagram name="Page-1" id="Gel2bEzp8XQmtPEj7MRF">
    <mxGraphModel dx="930" dy="483" grid="1" gridSize="10" guides="1" tooltips="1" connect="1" arrows="1" fold="1" page="1" pageScale="1" pageWidth="850" pageHeight="1100" math="0" shadow="0">
      <root>
        <mxCell id="0" />
        <mxCell id="1" parent="0" />
        <mxCell id="9fVDtXbXBOAw9IuQ9CmK-1" value="Create Game" style="ellipse;whiteSpace=wrap;html=1;fillColor=#99FF99;" vertex="1" parent="1">
          <mxGeometry x="180" y="110" width="140" height="70" as="geometry" />
        </mxCell>
        <mxCell id="9fVDtXbXBOAw9IuQ9CmK-2" value="User" style="shape=umlActor;verticalLabelPosition=bottom;verticalAlign=top;html=1;" vertex="1" parent="1">
          <mxGeometry x="20" y="120" width="30" height="60" as="geometry" />
        </mxCell>
        <mxCell id="9fVDtXbXBOAw9IuQ9CmK-4" value="" style="endArrow=none;html=1;rounded=0;" edge="1" parent="1" source="9fVDtXbXBOAw9IuQ9CmK-2" target="9fVDtXbXBOAw9IuQ9CmK-1">
          <mxGeometry width="50" height="50" relative="1" as="geometry">
            <mxPoint x="110" y="195" as="sourcePoint" />
            <mxPoint x="160" y="145" as="targetPoint" />
          </mxGeometry>
        </mxCell>
        <mxCell id="9fVDtXbXBOAw9IuQ9CmK-5" value="Join Game" style="ellipse;whiteSpace=wrap;html=1;fillColor=#99FF99;" vertex="1" parent="1">
          <mxGeometry x="180" y="200" width="140" height="70" as="geometry" />
        </mxCell>
        <mxCell id="9fVDtXbXBOAw9IuQ9CmK-7" value="" style="endArrow=none;html=1;rounded=0;" edge="1" parent="1" source="9fVDtXbXBOAw9IuQ9CmK-2" target="9fVDtXbXBOAw9IuQ9CmK-5">
          <mxGeometry width="50" height="50" relative="1" as="geometry">
            <mxPoint x="60" y="285" as="sourcePoint" />
            <mxPoint x="160" y="285" as="targetPoint" />
          </mxGeometry>
        </mxCell>
        <mxCell id="9fVDtXbXBOAw9IuQ9CmK-8" value="Close Game" style="ellipse;whiteSpace=wrap;html=1;fillColor=#99FF99;" vertex="1" parent="1">
          <mxGeometry x="180" y="560" width="140" height="70" as="geometry" />
        </mxCell>
        <mxCell id="9fVDtXbXBOAw9IuQ9CmK-10" value="" style="endArrow=none;html=1;rounded=0;" edge="1" parent="1" source="9fVDtXbXBOAw9IuQ9CmK-19" target="9fVDtXbXBOAw9IuQ9CmK-8">
          <mxGeometry width="50" height="50" relative="1" as="geometry">
            <mxPoint x="60" y="595" as="sourcePoint" />
            <mxPoint x="160" y="595" as="targetPoint" />
          </mxGeometry>
        </mxCell>
        <mxCell id="9fVDtXbXBOAw9IuQ9CmK-12" value="Make Play" style="ellipse;whiteSpace=wrap;html=1;fillColor=#99FF99;" vertex="1" parent="1">
          <mxGeometry x="180" y="290" width="140" height="70" as="geometry" />
        </mxCell>
        <mxCell id="9fVDtXbXBOAw9IuQ9CmK-13" value="Player" style="shape=umlActor;verticalLabelPosition=bottom;verticalAlign=top;html=1;" vertex="1" parent="1">
          <mxGeometry x="20" y="345" width="30" height="60" as="geometry" />
        </mxCell>
        <mxCell id="9fVDtXbXBOAw9IuQ9CmK-14" value="" style="endArrow=none;html=1;rounded=0;" edge="1" parent="1" source="9fVDtXbXBOAw9IuQ9CmK-13" target="9fVDtXbXBOAw9IuQ9CmK-12">
          <mxGeometry width="50" height="50" relative="1" as="geometry">
            <mxPoint x="100" y="425" as="sourcePoint" />
            <mxPoint x="150" y="375" as="targetPoint" />
          </mxGeometry>
        </mxCell>
        <mxCell id="9fVDtXbXBOAw9IuQ9CmK-15" value="Leave Game" style="ellipse;whiteSpace=wrap;html=1;fillColor=#99FF99;" vertex="1" parent="1">
          <mxGeometry x="180" y="380" width="140" height="70" as="geometry" />
        </mxCell>
        <mxCell id="9fVDtXbXBOAw9IuQ9CmK-17" value="" style="endArrow=none;html=1;rounded=0;" edge="1" parent="1" source="9fVDtXbXBOAw9IuQ9CmK-13" target="9fVDtXbXBOAw9IuQ9CmK-15">
          <mxGeometry width="50" height="50" relative="1" as="geometry">
            <mxPoint x="60" y="480" as="sourcePoint" />
            <mxPoint x="160" y="480" as="targetPoint" />
          </mxGeometry>
        </mxCell>
        <mxCell id="9fVDtXbXBOAw9IuQ9CmK-18" value="Start Game" style="ellipse;whiteSpace=wrap;html=1;fillColor=#99FF99;" vertex="1" parent="1">
          <mxGeometry x="180" y="470" width="140" height="70" as="geometry" />
        </mxCell>
        <mxCell id="9fVDtXbXBOAw9IuQ9CmK-19" value="Game Admin" style="shape=umlActor;verticalLabelPosition=bottom;verticalAlign=top;html=1;" vertex="1" parent="1">
          <mxGeometry x="20" y="520" width="30" height="60" as="geometry" />
        </mxCell>
        <mxCell id="9fVDtXbXBOAw9IuQ9CmK-20" value="" style="endArrow=none;html=1;rounded=0;" edge="1" parent="1" source="9fVDtXbXBOAw9IuQ9CmK-19" target="9fVDtXbXBOAw9IuQ9CmK-18">
          <mxGeometry width="50" height="50" relative="1" as="geometry">
            <mxPoint x="100" y="555" as="sourcePoint" />
            <mxPoint x="150" y="505" as="targetPoint" />
          </mxGeometry>
        </mxCell>
        <mxCell id="9fVDtXbXBOAw9IuQ9CmK-21" value="Get User Id" style="ellipse;whiteSpace=wrap;html=1;fillColor=#99FF99;" vertex="1" parent="1">
          <mxGeometry x="180" y="20" width="140" height="70" as="geometry" />
        </mxCell>
        <mxCell id="9fVDtXbXBOAw9IuQ9CmK-23" value="" style="endArrow=none;html=1;rounded=0;" edge="1" parent="1" source="9fVDtXbXBOAw9IuQ9CmK-2" target="9fVDtXbXBOAw9IuQ9CmK-21">
          <mxGeometry width="50" height="50" relative="1" as="geometry">
            <mxPoint x="50" y="25" as="sourcePoint" />
            <mxPoint x="150" y="25" as="targetPoint" />
          </mxGeometry>
        </mxCell>
        <mxCell id="9fVDtXbXBOAw9IuQ9CmK-27" value="Extends" style="endArrow=block;endSize=16;endFill=0;html=1;rounded=0;" edge="1" parent="1" source="9fVDtXbXBOAw9IuQ9CmK-13" target="9fVDtXbXBOAw9IuQ9CmK-2">
          <mxGeometry width="160" relative="1" as="geometry">
            <mxPoint x="40" y="330" as="sourcePoint" />
            <mxPoint x="440" y="240" as="targetPoint" />
          </mxGeometry>
        </mxCell>
        <mxCell id="9fVDtXbXBOAw9IuQ9CmK-28" value="Extends" style="endArrow=block;endSize=16;endFill=0;html=1;rounded=0;" edge="1" parent="1" source="9fVDtXbXBOAw9IuQ9CmK-19" target="9fVDtXbXBOAw9IuQ9CmK-13">
          <mxGeometry width="160" relative="1" as="geometry">
            <mxPoint x="280" y="360" as="sourcePoint" />
            <mxPoint x="440" y="360" as="targetPoint" />
          </mxGeometry>
        </mxCell>
        <mxCell id="9fVDtXbXBOAw9IuQ9CmK-29" value="Creating a game converts a User to a Game Admin." style="shape=note;whiteSpace=wrap;html=1;backgroundOutline=1;darkOpacity=0.05;verticalAlign=bottom;size=17;align=left;spacingRight=0;" vertex="1" parent="1">
          <mxGeometry x="430" y="120" width="130" height="50" as="geometry" />
        </mxCell>
        <mxCell id="9fVDtXbXBOAw9IuQ9CmK-31" value="Joining a game converts a User to a Player." style="shape=note;whiteSpace=wrap;html=1;backgroundOutline=1;darkOpacity=0.05;verticalAlign=bottom;size=17;align=left;spacingRight=0;" vertex="1" parent="1">
          <mxGeometry x="390" y="300" width="130" height="50" as="geometry" />
        </mxCell>
        <mxCell id="9fVDtXbXBOAw9IuQ9CmK-33" value="" style="endArrow=none;dashed=1;html=1;rounded=0;" edge="1" parent="1" source="9fVDtXbXBOAw9IuQ9CmK-5" target="9fVDtXbXBOAw9IuQ9CmK-31">
          <mxGeometry width="50" height="50" relative="1" as="geometry">
            <mxPoint x="470" y="410" as="sourcePoint" />
            <mxPoint x="520" y="360" as="targetPoint" />
          </mxGeometry>
        </mxCell>
        <mxCell id="9fVDtXbXBOAw9IuQ9CmK-34" value="" style="endArrow=none;dashed=1;html=1;rounded=0;" edge="1" parent="1" source="9fVDtXbXBOAw9IuQ9CmK-1" target="9fVDtXbXBOAw9IuQ9CmK-29">
          <mxGeometry width="50" height="50" relative="1" as="geometry">
            <mxPoint x="370" y="90" as="sourcePoint" />
            <mxPoint x="500" y="90" as="targetPoint" />
          </mxGeometry>
        </mxCell>
        <mxCell id="9fVDtXbXBOAw9IuQ9CmK-35" value="Connect" style="ellipse;whiteSpace=wrap;html=1;fillColor=#99FF99;" vertex="1" parent="1">
          <mxGeometry x="385" y="20" width="140" height="70" as="geometry" />
        </mxCell>
        <mxCell id="9fVDtXbXBOAw9IuQ9CmK-36" value="Disconnect" style="ellipse;whiteSpace=wrap;html=1;fillColor=#99FF99;" vertex="1" parent="1">
          <mxGeometry x="390" y="190" width="140" height="70" as="geometry" />
        </mxCell>
        <mxCell id="9fVDtXbXBOAw9IuQ9CmK-37" value="" style="endArrow=none;html=1;rounded=0;" edge="1" parent="1" source="9fVDtXbXBOAw9IuQ9CmK-2" target="9fVDtXbXBOAw9IuQ9CmK-36">
          <mxGeometry width="50" height="50" relative="1" as="geometry">
            <mxPoint x="60" y="166" as="sourcePoint" />
            <mxPoint x="205" y="223" as="targetPoint" />
          </mxGeometry>
        </mxCell>
        <mxCell id="9fVDtXbXBOAw9IuQ9CmK-38" value="" style="endArrow=none;html=1;rounded=0;" edge="1" parent="1" source="9fVDtXbXBOAw9IuQ9CmK-2" target="9fVDtXbXBOAw9IuQ9CmK-35">
          <mxGeometry width="50" height="50" relative="1" as="geometry">
            <mxPoint x="60" y="162" as="sourcePoint" />
            <mxPoint x="342" y="197" as="targetPoint" />
          </mxGeometry>
        </mxCell>
      </root>
    </mxGraphModel>
  </diagram>
</mxfile>
